<?xml version="1.0" encoding="utf-8" standalone="no"?>
<!DOCTYPE svg PUBLIC "-//W3C//DTD SVG 1.1//EN"
  "http://www.w3.org/Graphics/SVG/1.1/DTD/svg11.dtd">
<svg xmlns:xlink="http://www.w3.org/1999/xlink" width="288pt" height="432pt" viewBox="0 0 288 432" xmlns="http://www.w3.org/2000/svg" version="1.1">
 <metadata>
  <rdf:RDF xmlns:dc="http://purl.org/dc/elements/1.1/" xmlns:cc="http://creativecommons.org/ns#" xmlns:rdf="http://www.w3.org/1999/02/22-rdf-syntax-ns#">
   <cc:Work>
    <dc:type rdf:resource="http://purl.org/dc/dcmitype/StillImage"/>
    <dc:date>2024-09-23T22:20:39.314760</dc:date>
    <dc:format>image/svg+xml</dc:format>
    <dc:creator>
     <cc:Agent>
      <dc:title>Matplotlib v3.7.1, https://matplotlib.org/</dc:title>
     </cc:Agent>
    </dc:creator>
   </cc:Work>
  </rdf:RDF>
 </metadata>
 <defs>
  <style type="text/css">*{stroke-linejoin: round; stroke-linecap: butt}</style>
 </defs>
 <g id="figure_1">
  <g id="patch_1">
   <path d="M 0 432 
L 288 432 
L 288 0 
L 0 0 
z
" style="fill: #ffffff"/>
  </g>
  <g id="axes_1">
   <g id="patch_2">
    <path d="M 94.335 369.290595 
L 268.56 369.290595 
L 268.56 19.44 
L 94.335 19.44 
z
" style="fill: #ffffff"/>
   </g>
   <g id="patch_3">
    <path d="M 102.254318 369.290595 
L 172.648258 369.290595 
L 172.648258 251.812074 
L 102.254318 251.812074 
L 102.254318 369.290595 
z
" clip-path="url(#pd593f266a1)" style="fill: none; stroke: #d95319; stroke-width: 2; stroke-linejoin: miter"/>
   </g>
   <g id="patch_4">
    <path d="M 190.246742 369.290595 
L 260.640682 369.290595 
L 260.640682 229.25263 
L 190.246742 229.25263 
L 190.246742 369.290595 
z
" clip-path="url(#pd593f266a1)" style="fill: none; stroke: #0072bd; stroke-width: 2; stroke-linejoin: miter"/>
   </g>
   <g id="matplotlib.axis_1">
    <g id="xtick_1">
     <g id="line2d_1">
      <defs>
       <path id="m89fa1474fa" d="M 0 0 
L 0 6 
" style="stroke: #000000; stroke-width: 0.8"/>
      </defs>
      <g>
       <use xlink:href="#m89fa1474fa" x="137.451288" y="369.290595" style="stroke: #000000; stroke-width: 0.8"/>
      </g>
     </g>
     <g id="text_1">
      <!-- exp -->
      <g transform="translate(118.016975 407.738823) rotate(-15) scale(0.24 -0.24)">
       <defs>
        <path id="DejaVuSans-65" d="M 3597 1894 
L 3597 1613 
L 953 1613 
Q 991 1019 1311 708 
Q 1631 397 2203 397 
Q 2534 397 2845 478 
Q 3156 559 3463 722 
L 3463 178 
Q 3153 47 2828 -22 
Q 2503 -91 2169 -91 
Q 1331 -91 842 396 
Q 353 884 353 1716 
Q 353 2575 817 3079 
Q 1281 3584 2069 3584 
Q 2775 3584 3186 3129 
Q 3597 2675 3597 1894 
z
M 3022 2063 
Q 3016 2534 2758 2815 
Q 2500 3097 2075 3097 
Q 1594 3097 1305 2825 
Q 1016 2553 972 2059 
L 3022 2063 
z
" transform="scale(0.015625)"/>
        <path id="DejaVuSans-78" d="M 3513 3500 
L 2247 1797 
L 3578 0 
L 2900 0 
L 1881 1375 
L 863 0 
L 184 0 
L 1544 1831 
L 300 3500 
L 978 3500 
L 1906 2253 
L 2834 3500 
L 3513 3500 
z
" transform="scale(0.015625)"/>
        <path id="DejaVuSans-70" d="M 1159 525 
L 1159 -1331 
L 581 -1331 
L 581 3500 
L 1159 3500 
L 1159 2969 
Q 1341 3281 1617 3432 
Q 1894 3584 2278 3584 
Q 2916 3584 3314 3078 
Q 3713 2572 3713 1747 
Q 3713 922 3314 415 
Q 2916 -91 2278 -91 
Q 1894 -91 1617 61 
Q 1341 213 1159 525 
z
M 3116 1747 
Q 3116 2381 2855 2742 
Q 2594 3103 2138 3103 
Q 1681 3103 1420 2742 
Q 1159 2381 1159 1747 
Q 1159 1113 1420 752 
Q 1681 391 2138 391 
Q 2594 391 2855 752 
Q 3116 1113 3116 1747 
z
" transform="scale(0.015625)"/>
       </defs>
       <use xlink:href="#DejaVuSans-65"/>
       <use xlink:href="#DejaVuSans-78" x="59.773438"/>
       <use xlink:href="#DejaVuSans-70" x="118.953125"/>
      </g>
     </g>
    </g>
    <g id="xtick_2">
     <g id="line2d_2">
      <g>
       <use xlink:href="#m89fa1474fa" x="225.443712" y="369.290595" style="stroke: #000000; stroke-width: 0.8"/>
      </g>
     </g>
     <g id="text_2">
      <!-- sim -->
      <g transform="translate(206.608877 407.417564) rotate(-15) scale(0.24 -0.24)">
       <defs>
        <path id="DejaVuSans-73" d="M 2834 3397 
L 2834 2853 
Q 2591 2978 2328 3040 
Q 2066 3103 1784 3103 
Q 1356 3103 1142 2972 
Q 928 2841 928 2578 
Q 928 2378 1081 2264 
Q 1234 2150 1697 2047 
L 1894 2003 
Q 2506 1872 2764 1633 
Q 3022 1394 3022 966 
Q 3022 478 2636 193 
Q 2250 -91 1575 -91 
Q 1294 -91 989 -36 
Q 684 19 347 128 
L 347 722 
Q 666 556 975 473 
Q 1284 391 1588 391 
Q 1994 391 2212 530 
Q 2431 669 2431 922 
Q 2431 1156 2273 1281 
Q 2116 1406 1581 1522 
L 1381 1569 
Q 847 1681 609 1914 
Q 372 2147 372 2553 
Q 372 3047 722 3315 
Q 1072 3584 1716 3584 
Q 2034 3584 2315 3537 
Q 2597 3491 2834 3397 
z
" transform="scale(0.015625)"/>
        <path id="DejaVuSans-69" d="M 603 3500 
L 1178 3500 
L 1178 0 
L 603 0 
L 603 3500 
z
M 603 4863 
L 1178 4863 
L 1178 4134 
L 603 4134 
L 603 4863 
z
" transform="scale(0.015625)"/>
        <path id="DejaVuSans-6d" d="M 3328 2828 
Q 3544 3216 3844 3400 
Q 4144 3584 4550 3584 
Q 5097 3584 5394 3201 
Q 5691 2819 5691 2113 
L 5691 0 
L 5113 0 
L 5113 2094 
Q 5113 2597 4934 2840 
Q 4756 3084 4391 3084 
Q 3944 3084 3684 2787 
Q 3425 2491 3425 1978 
L 3425 0 
L 2847 0 
L 2847 2094 
Q 2847 2600 2669 2842 
Q 2491 3084 2119 3084 
Q 1678 3084 1418 2786 
Q 1159 2488 1159 1978 
L 1159 0 
L 581 0 
L 581 3500 
L 1159 3500 
L 1159 2956 
Q 1356 3278 1631 3431 
Q 1906 3584 2284 3584 
Q 2666 3584 2933 3390 
Q 3200 3197 3328 2828 
z
" transform="scale(0.015625)"/>
       </defs>
       <use xlink:href="#DejaVuSans-73"/>
       <use xlink:href="#DejaVuSans-69" x="52.099609"/>
       <use xlink:href="#DejaVuSans-6d" x="79.882812"/>
      </g>
     </g>
    </g>
   </g>
   <g id="matplotlib.axis_2">
    <g id="ytick_1">
     <g id="line2d_3">
      <defs>
       <path id="m034a211831" d="M 0 0 
L -6 0 
" style="stroke: #000000; stroke-width: 0.8"/>
      </defs>
      <g>
       <use xlink:href="#m034a211831" x="94.335" y="369.290595" style="stroke: #000000; stroke-width: 0.8"/>
      </g>
     </g>
     <g id="text_3">
      <!-- 0.0 -->
      <g transform="translate(46.6675 378.40872) scale(0.24 -0.24)">
       <defs>
        <path id="DejaVuSans-30" d="M 2034 4250 
Q 1547 4250 1301 3770 
Q 1056 3291 1056 2328 
Q 1056 1369 1301 889 
Q 1547 409 2034 409 
Q 2525 409 2770 889 
Q 3016 1369 3016 2328 
Q 3016 3291 2770 3770 
Q 2525 4250 2034 4250 
z
M 2034 4750 
Q 2819 4750 3233 4129 
Q 3647 3509 3647 2328 
Q 3647 1150 3233 529 
Q 2819 -91 2034 -91 
Q 1250 -91 836 529 
Q 422 1150 422 2328 
Q 422 3509 836 4129 
Q 1250 4750 2034 4750 
z
" transform="scale(0.015625)"/>
        <path id="DejaVuSans-2e" d="M 684 794 
L 1344 794 
L 1344 0 
L 684 0 
L 684 794 
z
" transform="scale(0.015625)"/>
       </defs>
       <use xlink:href="#DejaVuSans-30"/>
       <use xlink:href="#DejaVuSans-2e" x="63.623047"/>
       <use xlink:href="#DejaVuSans-30" x="95.410156"/>
      </g>
     </g>
    </g>
    <g id="ytick_2">
     <g id="line2d_4">
      <g>
       <use xlink:href="#m034a211831" x="94.335" y="278.453343" style="stroke: #000000; stroke-width: 0.8"/>
      </g>
     </g>
     <g id="text_4">
      <!-- 0.1 -->
      <g transform="translate(46.6675 287.571468) scale(0.24 -0.24)">
       <defs>
        <path id="DejaVuSans-31" d="M 794 531 
L 1825 531 
L 1825 4091 
L 703 3866 
L 703 4441 
L 1819 4666 
L 2450 4666 
L 2450 531 
L 3481 531 
L 3481 0 
L 794 0 
L 794 531 
z
" transform="scale(0.015625)"/>
       </defs>
       <use xlink:href="#DejaVuSans-30"/>
       <use xlink:href="#DejaVuSans-2e" x="63.623047"/>
       <use xlink:href="#DejaVuSans-31" x="95.410156"/>
      </g>
     </g>
    </g>
    <g id="ytick_3">
     <g id="line2d_5">
      <g>
       <use xlink:href="#m034a211831" x="94.335" y="187.61609" style="stroke: #000000; stroke-width: 0.8"/>
      </g>
     </g>
     <g id="text_5">
      <!-- 0.2 -->
      <g transform="translate(46.6675 196.734215) scale(0.24 -0.24)">
       <defs>
        <path id="DejaVuSans-32" d="M 1228 531 
L 3431 531 
L 3431 0 
L 469 0 
L 469 531 
Q 828 903 1448 1529 
Q 2069 2156 2228 2338 
Q 2531 2678 2651 2914 
Q 2772 3150 2772 3378 
Q 2772 3750 2511 3984 
Q 2250 4219 1831 4219 
Q 1534 4219 1204 4116 
Q 875 4013 500 3803 
L 500 4441 
Q 881 4594 1212 4672 
Q 1544 4750 1819 4750 
Q 2544 4750 2975 4387 
Q 3406 4025 3406 3419 
Q 3406 3131 3298 2873 
Q 3191 2616 2906 2266 
Q 2828 2175 2409 1742 
Q 1991 1309 1228 531 
z
" transform="scale(0.015625)"/>
       </defs>
       <use xlink:href="#DejaVuSans-30"/>
       <use xlink:href="#DejaVuSans-2e" x="63.623047"/>
       <use xlink:href="#DejaVuSans-32" x="95.410156"/>
      </g>
     </g>
    </g>
    <g id="ytick_4">
     <g id="line2d_6">
      <g>
       <use xlink:href="#m034a211831" x="94.335" y="96.778837" style="stroke: #000000; stroke-width: 0.8"/>
      </g>
     </g>
     <g id="text_6">
      <!-- 0.3 -->
      <g transform="translate(46.6675 105.896962) scale(0.24 -0.24)">
       <defs>
        <path id="DejaVuSans-33" d="M 2597 2516 
Q 3050 2419 3304 2112 
Q 3559 1806 3559 1356 
Q 3559 666 3084 287 
Q 2609 -91 1734 -91 
Q 1441 -91 1130 -33 
Q 819 25 488 141 
L 488 750 
Q 750 597 1062 519 
Q 1375 441 1716 441 
Q 2309 441 2620 675 
Q 2931 909 2931 1356 
Q 2931 1769 2642 2001 
Q 2353 2234 1838 2234 
L 1294 2234 
L 1294 2753 
L 1863 2753 
Q 2328 2753 2575 2939 
Q 2822 3125 2822 3475 
Q 2822 3834 2567 4026 
Q 2313 4219 1838 4219 
Q 1578 4219 1281 4162 
Q 984 4106 628 3988 
L 628 4550 
Q 988 4650 1302 4700 
Q 1616 4750 1894 4750 
Q 2613 4750 3031 4423 
Q 3450 4097 3450 3541 
Q 3450 3153 3228 2886 
Q 3006 2619 2597 2516 
z
" transform="scale(0.015625)"/>
       </defs>
       <use xlink:href="#DejaVuSans-30"/>
       <use xlink:href="#DejaVuSans-2e" x="63.623047"/>
       <use xlink:href="#DejaVuSans-33" x="95.410156"/>
      </g>
     </g>
    </g>
    <g id="text_7">
     <!-- ISI (s) -->
     <g transform="translate(37.67625 228.492173) rotate(-90) scale(0.24 -0.24)">
      <defs>
       <path id="DejaVuSans-49" d="M 628 4666 
L 1259 4666 
L 1259 0 
L 628 0 
L 628 4666 
z
" transform="scale(0.015625)"/>
       <path id="DejaVuSans-53" d="M 3425 4513 
L 3425 3897 
Q 3066 4069 2747 4153 
Q 2428 4238 2131 4238 
Q 1616 4238 1336 4038 
Q 1056 3838 1056 3469 
Q 1056 3159 1242 3001 
Q 1428 2844 1947 2747 
L 2328 2669 
Q 3034 2534 3370 2195 
Q 3706 1856 3706 1288 
Q 3706 609 3251 259 
Q 2797 -91 1919 -91 
Q 1588 -91 1214 -16 
Q 841 59 441 206 
L 441 856 
Q 825 641 1194 531 
Q 1563 422 1919 422 
Q 2459 422 2753 634 
Q 3047 847 3047 1241 
Q 3047 1584 2836 1778 
Q 2625 1972 2144 2069 
L 1759 2144 
Q 1053 2284 737 2584 
Q 422 2884 422 3419 
Q 422 4038 858 4394 
Q 1294 4750 2059 4750 
Q 2388 4750 2728 4690 
Q 3069 4631 3425 4513 
z
" transform="scale(0.015625)"/>
       <path id="DejaVuSans-20" transform="scale(0.015625)"/>
       <path id="DejaVuSans-28" d="M 1984 4856 
Q 1566 4138 1362 3434 
Q 1159 2731 1159 2009 
Q 1159 1288 1364 580 
Q 1569 -128 1984 -844 
L 1484 -844 
Q 1016 -109 783 600 
Q 550 1309 550 2009 
Q 550 2706 781 3412 
Q 1013 4119 1484 4856 
L 1984 4856 
z
" transform="scale(0.015625)"/>
       <path id="DejaVuSans-29" d="M 513 4856 
L 1013 4856 
Q 1481 4119 1714 3412 
Q 1947 2706 1947 2009 
Q 1947 1309 1714 600 
Q 1481 -109 1013 -844 
L 513 -844 
Q 928 -128 1133 580 
Q 1338 1288 1338 2009 
Q 1338 2731 1133 3434 
Q 928 4138 513 4856 
z
" transform="scale(0.015625)"/>
      </defs>
      <use xlink:href="#DejaVuSans-49"/>
      <use xlink:href="#DejaVuSans-53" x="29.492188"/>
      <use xlink:href="#DejaVuSans-49" x="92.96875"/>
      <use xlink:href="#DejaVuSans-20" x="122.460938"/>
      <use xlink:href="#DejaVuSans-28" x="154.248047"/>
      <use xlink:href="#DejaVuSans-73" x="193.261719"/>
      <use xlink:href="#DejaVuSans-29" x="245.361328"/>
     </g>
    </g>
   </g>
   <g id="LineCollection_1">
    <path d="M 137.451288 261.168679 
L 137.451288 242.455469 
" clip-path="url(#pd593f266a1)" style="fill: none; stroke: #000000; stroke-width: 3"/>
    <path d="M 225.443712 239.249181 
L 225.443712 219.256079 
" clip-path="url(#pd593f266a1)" style="fill: none; stroke: #000000; stroke-width: 3"/>
   </g>
   <g id="line2d_7">
    <defs>
     <path id="mfd8c50be4f" d="M 10 0 
L -10 -0 
" style="stroke: #000000"/>
    </defs>
    <g clip-path="url(#pd593f266a1)">
     <use xlink:href="#mfd8c50be4f" x="137.451288" y="261.168679" style="stroke: #000000"/>
     <use xlink:href="#mfd8c50be4f" x="225.443712" y="239.249181" style="stroke: #000000"/>
    </g>
   </g>
   <g id="line2d_8">
    <g clip-path="url(#pd593f266a1)">
     <use xlink:href="#mfd8c50be4f" x="137.451288" y="242.455469" style="stroke: #000000"/>
     <use xlink:href="#mfd8c50be4f" x="225.443712" y="219.256079" style="stroke: #000000"/>
    </g>
   </g>
   <g id="line2d_9">
    <defs>
     <path id="m67f06fdbf2" d="M 0 2 
C 0.530406 2 1.03916 1.789267 1.414214 1.414214 
C 1.789267 1.03916 2 0.530406 2 0 
C 2 -0.530406 1.789267 -1.03916 1.414214 -1.414214 
C 1.03916 -1.789267 0.530406 -2 0 -2 
C -0.530406 -2 -1.03916 -1.789267 -1.414214 -1.414214 
C -1.789267 -1.03916 -2 -0.530406 -2 0 
C -2 0.530406 -1.789267 1.03916 -1.414214 1.414214 
C -1.03916 1.789267 -0.530406 2 0 2 
z
" style="stroke: #d95319"/>
    </defs>
    <g clip-path="url(#pd593f266a1)">
     <use xlink:href="#m67f06fdbf2" x="135.668418" y="237.21323" style="fill: #d95319; stroke: #d95319"/>
     <use xlink:href="#m67f06fdbf2" x="139.154592" y="242.027604" style="fill: #d95319; stroke: #d95319"/>
     <use xlink:href="#m67f06fdbf2" x="136.268394" y="249.657933" style="fill: #d95319; stroke: #d95319"/>
     <use xlink:href="#m67f06fdbf2" x="136.549512" y="258.832496" style="fill: #d95319; stroke: #d95319"/>
     <use xlink:href="#m67f06fdbf2" x="140.732244" y="246.47863" style="fill: #d95319; stroke: #d95319"/>
     <use xlink:href="#m67f06fdbf2" x="144.192278" y="248.204537" style="fill: #d95319; stroke: #d95319"/>
     <use xlink:href="#m67f06fdbf2" x="140.120382" y="239.302487" style="fill: #d95319; stroke: #d95319"/>
     <use xlink:href="#m67f06fdbf2" x="135.645491" y="235.487322" style="fill: #d95319; stroke: #d95319"/>
     <use xlink:href="#m67f06fdbf2" x="140.408306" y="231.853832" style="fill: #d95319; stroke: #d95319"/>
     <use xlink:href="#m67f06fdbf2" x="133.985786" y="235.123973" style="fill: #d95319; stroke: #d95319"/>
     <use xlink:href="#m67f06fdbf2" x="126.963462" y="261.830125" style="fill: #d95319; stroke: #d95319"/>
     <use xlink:href="#m67f06fdbf2" x="138.202037" y="179.713249" style="fill: #d95319; stroke: #d95319"/>
     <use xlink:href="#m67f06fdbf2" x="134.648997" y="315.696616" style="fill: #d95319; stroke: #d95319"/>
     <use xlink:href="#m67f06fdbf2" x="139.135539" y="310.337218" style="fill: #d95319; stroke: #d95319"/>
     <use xlink:href="#m67f06fdbf2" x="130.617331" y="303.070238" style="fill: #d95319; stroke: #d95319"/>
     <use xlink:href="#m67f06fdbf2" x="133.828198" y="283.903578" style="fill: #d95319; stroke: #d95319"/>
     <use xlink:href="#m67f06fdbf2" x="140.864502" y="252.019702" style="fill: #d95319; stroke: #d95319"/>
     <use xlink:href="#m67f06fdbf2" x="136.604524" y="36.099552" style="fill: #d95319; stroke: #d95319"/>
     <use xlink:href="#m67f06fdbf2" x="130.80815" y="124.575036" style="fill: #d95319; stroke: #d95319"/>
     <use xlink:href="#m67f06fdbf2" x="138.297072" y="108.496843" style="fill: #d95319; stroke: #d95319"/>
     <use xlink:href="#m67f06fdbf2" x="138.105232" y="173.263804" style="fill: #d95319; stroke: #d95319"/>
     <use xlink:href="#m67f06fdbf2" x="136.777398" y="131.932854" style="fill: #d95319; stroke: #d95319"/>
     <use xlink:href="#m67f06fdbf2" x="131.224007" y="308.338799" style="fill: #d95319; stroke: #d95319"/>
     <use xlink:href="#m67f06fdbf2" x="137.484499" y="308.97466" style="fill: #d95319; stroke: #d95319"/>
     <use xlink:href="#m67f06fdbf2" x="147.551612" y="306.97624" style="fill: #d95319; stroke: #d95319"/>
     <use xlink:href="#m67f06fdbf2" x="137.217471" y="306.612891" style="fill: #d95319; stroke: #d95319"/>
     <use xlink:href="#m67f06fdbf2" x="134.867343" y="305.613681" style="fill: #d95319; stroke: #d95319"/>
     <use xlink:href="#m67f06fdbf2" x="132.01211" y="301.162656" style="fill: #d95319; stroke: #d95319"/>
     <use xlink:href="#m67f06fdbf2" x="142.903432" y="298.165026" style="fill: #d95319; stroke: #d95319"/>
     <use xlink:href="#m67f06fdbf2" x="135.550612" y="299.345911" style="fill: #d95319; stroke: #d95319"/>
     <use xlink:href="#m67f06fdbf2" x="136.760426" y="297.71084" style="fill: #d95319; stroke: #d95319"/>
     <use xlink:href="#m67f06fdbf2" x="142.407375" y="292.169768" style="fill: #d95319; stroke: #d95319"/>
     <use xlink:href="#m67f06fdbf2" x="142.282278" y="292.805629" style="fill: #d95319; stroke: #d95319"/>
     <use xlink:href="#m67f06fdbf2" x="132.959171" y="286.265346" style="fill: #d95319; stroke: #d95319"/>
     <use xlink:href="#m67f06fdbf2" x="131.987024" y="276.182411" style="fill: #d95319; stroke: #d95319"/>
     <use xlink:href="#m67f06fdbf2" x="140.902418" y="282.086833" style="fill: #d95319; stroke: #d95319"/>
     <use xlink:href="#m67f06fdbf2" x="141.471111" y="282.17767" style="fill: #d95319; stroke: #d95319"/>
     <use xlink:href="#m67f06fdbf2" x="129.521731" y="260.104218" style="fill: #d95319; stroke: #d95319"/>
     <use xlink:href="#m67f06fdbf2" x="129.429169" y="264.64608" style="fill: #d95319; stroke: #d95319"/>
     <use xlink:href="#m67f06fdbf2" x="138.341056" y="244.389373" style="fill: #d95319; stroke: #d95319"/>
     <use xlink:href="#m67f06fdbf2" x="136.635844" y="231.58132" style="fill: #d95319; stroke: #d95319"/>
     <use xlink:href="#m67f06fdbf2" x="141.465225" y="225.676899" style="fill: #d95319; stroke: #d95319"/>
    </g>
   </g>
   <g id="line2d_10">
    <defs>
     <path id="mde7799c4b4" d="M 0 2 
C 0.530406 2 1.03916 1.789267 1.414214 1.414214 
C 1.789267 1.03916 2 0.530406 2 0 
C 2 -0.530406 1.789267 -1.03916 1.414214 -1.414214 
C 1.03916 -1.789267 0.530406 -2 0 -2 
C -0.530406 -2 -1.03916 -1.789267 -1.414214 -1.414214 
C -1.789267 -1.03916 -2 -0.530406 -2 0 
C -2 0.530406 -1.789267 1.03916 -1.414214 1.414214 
C -1.03916 1.789267 -0.530406 2 0 2 
z
" style="stroke: #0072bd"/>
    </defs>
    <g clip-path="url(#pd593f266a1)">
     <use xlink:href="#mde7799c4b4" x="228.65642" y="287.353488" style="fill: #0072bd; stroke: #0072bd"/>
     <use xlink:href="#mde7799c4b4" x="223.403236" y="279.359624" style="fill: #0072bd; stroke: #0072bd"/>
     <use xlink:href="#mde7799c4b4" x="218.126988" y="258.739088" style="fill: #0072bd; stroke: #0072bd"/>
     <use xlink:href="#mde7799c4b4" x="220.228096" y="230.578885" style="fill: #0072bd; stroke: #0072bd"/>
     <use xlink:href="#mde7799c4b4" x="220.568716" y="209.504152" style="fill: #0072bd; stroke: #0072bd"/>
     <use xlink:href="#mde7799c4b4" x="217.5301" y="205.053023" style="fill: #0072bd; stroke: #0072bd"/>
     <use xlink:href="#mde7799c4b4" x="219.485662" y="205.234702" style="fill: #0072bd; stroke: #0072bd"/>
     <use xlink:href="#mde7799c4b4" x="219.545141" y="205.50722" style="fill: #0072bd; stroke: #0072bd"/>
     <use xlink:href="#mde7799c4b4" x="220.174678" y="205.41638" style="fill: #0072bd; stroke: #0072bd"/>
     <use xlink:href="#mde7799c4b4" x="225.857808" y="205.779738" style="fill: #0072bd; stroke: #0072bd"/>
    </g>
   </g>
   <g id="patch_5">
    <path d="M 94.335 369.290595 
L 94.335 19.44 
" style="fill: none; stroke: #000000; stroke-width: 0.8; stroke-linejoin: miter; stroke-linecap: square"/>
   </g>
   <g id="patch_6">
    <path d="M 94.335 369.290595 
L 268.56 369.290595 
" style="fill: none; stroke: #000000; stroke-width: 0.8; stroke-linejoin: miter; stroke-linecap: square"/>
   </g>
  </g>
 </g>
 <defs>
  <clipPath id="pd593f266a1">
   <rect x="94.335" y="19.44" width="174.225" height="349.850595"/>
  </clipPath>
 </defs>
</svg>
